<svg xmlns="http://www.w3.org/2000/svg" viewBox="0 0 841.9 595.3">
    <g fill="#61DAFB"><g transform="matrix(10.9639,0,0,10.9639,102.305,-81.7434)">
        <path d="M37.92,42.22C41.7,34.22 44.92,27.27 50,27.27C55,27.27 58.3,34.2 62.08,42.22C68.2,55.22 75.81,71.35 95.56,71.35L95.56,69.35C77.08,69.35 69.77,53.84 63.89,41.35C59.82,32.74 56.3,25.28 50,25.28C43.7,25.28 40.18,32.74 36.11,41.37C30.23,53.84 22.92,69.37 4.44,69.37L4.44,71.37C24.18,71.35 31.8,55.2 37.92,42.22Z" style="fill-rule:nonzero;"/>
    </g>
    <g transform="matrix(10.9639,0,0,10.9639,102.305,-81.7434)">
        <rect x="0" y="72.72" width="100" height="2"/>
    </g>
    <g transform="matrix(11.7481,0,0,13.4154,-5.03619,-573.328)">
        <rect x="7.349" y="47.397" width="1.788" height="50.312"/>
    </g>
</svg>
