<?xml version="1.0" encoding="UTF-8" standalone="no"?>
<!DOCTYPE svg PUBLIC "-//W3C//DTD SVG 1.1//EN" "http://www.w3.org/Graphics/SVG/1.1/DTD/svg11.dtd">
<svg
        width="397"
        height="451"
        viewBox="0 0 1000 1000"
        fill="none"
        xmlns="http://www.w3.org/2000/svg"
      >
        <g transform="matrix(1.53508,0,0,1.53508,-232.122,9.36246)">
          <path
            d="M764.766,490.34C764.745,499.417 759.805,507.77 751.861,512.161L526.767,636.596C504.476,648.918 480.188,623.914 493.153,601.99L718.849,220.357C731.814,198.434 765.427,207.672 765.367,233.142L764.766,490.34Z"
            style="fill:url(#_Linear3);fill-rule:nonzero;"
          />
        </g>
        <g transform="matrix(1.53508,0,0,1.53508,-232.122,9.36246)">
          <path
            d="M465.32,7.462C473.146,2.857 482.854,2.857 490.68,7.462L712.411,137.954C734.36,150.871 725.198,184.5 699.731,184.5L256.269,184.5C230.802,184.5 221.64,150.871 243.589,137.954L465.32,7.462Z"
            style="fill:url(#_Linear1);fill-rule:nonzero;"
          />
        </g>
        <g transform="matrix(1.53508,0,0,1.53508,-232.122,9.36246)">
          <path
            d="M194.617,512.033C186.708,507.579 181.835,499.188 181.885,490.111L183.314,232.915C183.455,207.446 217.14,198.474 229.932,220.499L452.609,603.901C465.4,625.926 440.916,650.738 418.723,638.24L194.617,512.033Z"
            style="fill:url(#_Linear2);fill-rule:nonzero;"
          />
        </g>
        <defs>
          <linearGradient
            id="_Linear1"
            x1="0"
            y1="0"
            x2="1"
            y2="0"
            gradientUnits="userSpaceOnUse"
            gradientTransform="matrix(474.699,0,0,474.699,238.943,157.167)"
          >
            <stop offset="0" style="stop-color:rgb(255,116,116);stop-opacity:1" />
            <stop offset="0.49" style="stop-color:rgb(255,121,155);stop-opacity:1" />
            <stop offset="1" style="stop-color:rgb(255,127,196);stop-opacity:1" />
          </linearGradient>
          <linearGradient
            id="_Linear2"
            x1="0"
            y1="0"
            x2="1"
            y2="0"
            gradientUnits="userSpaceOnUse"
            gradientTransform="matrix(-238.402,-410.479,410.479,-238.402,437.704,632.637)"
          >
            <stop offset="0" style="stop-color:rgb(255,116,116);stop-opacity:1" />
            <stop offset="0.49" style="stop-color:rgb(255,121,155);stop-opacity:1" />
            <stop offset="1" style="stop-color:rgb(255,127,196);stop-opacity:1" />
          </linearGradient>
          <linearGradient
            id="_Linear3"
            x1="0"
            y1="0"
            x2="1"
            y2="0"
            gradientUnits="userSpaceOnUse"
            gradientTransform="matrix(-241.635,408.585,-408.585,-241.635,751.203,219.319)"
          >
            <stop offset="0" style="stop-color:rgb(255,116,116);stop-opacity:1" />
            <stop offset="0.49" style="stop-color:rgb(255,121,155);stop-opacity:1" />
            <stop offset="1" style="stop-color:rgb(255,127,196);stop-opacity:1" />
          </linearGradient>
        </defs>
      </svg>
